<?xml version="1.0" encoding="utf-8"?>
<!-- Generator: Adobe Illustrator 27.9.1, SVG Export Plug-In . SVG Version: 6.00 Build 0)  -->
<svg version="1.1" id="Laag_1" xmlns="http://www.w3.org/2000/svg" xmlns:xlink="http://www.w3.org/1999/xlink" x="0px" y="0px"
	 viewBox="0 0 1920 1080" style="enable-background:new 0 0 1920 1080;" xml:space="preserve">
<style type="text/css">
	.st0{clip-path:url(#SVGID_00000029758408413159243540000004855562539977029010_);}
	.st1{fill:#A7BAC2;}
	.st2{fill:#848478;}
	.st3{fill:#747B81;}
	.st4{fill:#BAB8B6;}
	.st5{fill:#3C382E;}
	.st6{fill:#EFD966;stroke:#000000;stroke-width:3;stroke-miterlimit:10;}
	.st7{fill:#FF9A56;stroke:#000000;stroke-width:3;stroke-miterlimit:10;}
	.st8{fill:#EFD966;}
	.st9{fill:#E2EAF0;stroke:#393C41;stroke-width:20;stroke-miterlimit:10;}
	.st10{fill:none;stroke:#393C41;stroke-width:10;stroke-miterlimit:10;}
	.st11{fill:#A8ACAF;}
	.st12{fill:#1A0D0C;}
	.st13{fill:#E2C095;}
	.st14{fill:#78898F;}
	.st15{fill:#91CDE4;}
	.st16{fill:#92C3E7;}
	.st17{fill:#695122;}
	.st18{fill:#050006;}
	.st19{fill:#FCEBB1;}
	.st20{fill:#BF7D5C;}
	.st21{fill:#3B4044;}
	.st22{fill:#141C05;}
	.st23{fill:none;stroke:#000000;stroke-width:9.9687;stroke-miterlimit:10;}
	.st24{fill:none;stroke:#000000;stroke-width:3.3934;stroke-miterlimit:10;}
	.st25{fill:#2A3303;}
	.st26{fill:#454C1E;}
	.st27{fill:#367400;}
	.st28{fill:#649E00;}
	.st29{fill:#294700;}
	.st30{fill:#2B8500;}
	.st31{fill:#67330C;}
	.st32{fill:#67330C;stroke:#000000;stroke-miterlimit:10;}
	.st33{fill:#3F3E03;}
	.st34{fill:#4C5457;}
	.st35{fill:#203821;}
	.st36{fill:#0F1B0F;}
	.st37{fill:#172917;}
	.st38{fill:#363F2E;}
	.st39{fill:#1C361D;}
	.st40{fill:#464C35;}
	.st41{fill:#E2BA5D;}
	.st42{fill:#AC7F2C;}
	.st43{fill:#0E0D08;}
	.st44{fill:#9C6A39;}
	.st45{fill:#150E0F;}
	.st46{fill:#4C3016;}
</style>
<g>
	<defs>
		<rect id="SVGID_1_" y="0" width="1920" height="1080"/>
	</defs>
	<clipPath id="SVGID_00000183939527654304470170000004556054887488646277_">
		<use xlink:href="#SVGID_1_"  style="overflow:visible;"/>
	</clipPath>
	<g style="clip-path:url(#SVGID_00000183939527654304470170000004556054887488646277_);">
		<g>
			<g>
				<rect y="0" class="st1" width="1920" height="1080"/>
				<polygon class="st2" points="1927,725.7 1920,1080 0,1080 0,690.6 541.3,569.7 1492.6,569.7 				"/>
				<rect x="541.3" class="st3" width="951.3" height="569.7"/>
			</g>
			<g>
				<path class="st4" d="M514.9,225.2c-5-5.1,1.5-19.6,0.6-37.8c-0.5-9.6-2.2-17.2,0.3-29.8c0.2-0.9,0.4-1.8,0.8-2.8
					c8.5-23.9,38.1-33.1,42.4-34.4c10.9-3.3,18.6-3.1,35-2.9c22.2,0.3,44.3-0.6,66.5,0c0,0,51.4,1.5,111.8-1.1
					c29.2-1.3,32.8-2.4,66.3-4.6c59.5-3.9,88.2-2.8,141.5-4.1c48.6-1.1,97.6,0.3,145.6-7.6c6.7-1.1,28.6-4.9,52.6,4.1
					c9,3.3,26.9,10,36.8,28.6c7.4,13.8,5.4,31.3,4.7,40.9c-1,12.7-4,19.1-0.5,28.8c0.9,2.5,2.9,6.9,1,9.1c-1.8,2.2-6.2,1.2-9.1,0.7
					c-18.5-3.2-29.6,6.5-33.9,1.3c-1.8-2.2-0.1-4.3,1.6-14.7c0,0,2.5-14.6,1.3-31.7c-0.6-9.3-1-14-3.9-18.3c-3-4.4-8-8-19.3-10.8
					c-17.5-4.3-30.1-1.9-53.5,0c-10.4,0.8-20.9,1-31.3,1.6c-35.4,2.2-45.4,1.7-110,3.9c-24,0.8-16,0.7-58.4,2.3
					c-54,2-96.6,3.4-112.6,3.9c-36.3,1.1-43,1.2-84.5,2.6c-48.9,1.6-45.3,1.7-48.6,1.6c-29.7-0.2-59.6,5.8-89.1,2.6
					c-2.5-0.3-9.4-1.1-13.7,2.9c-3.2,2.9-3.6,7.1-3.9,13.1c-1.1,18-1.7,27-0.7,34.6c1.6,11.8,4.3,19.4,1,21.5
					c-0.9,0.5-1.5,0.3-4.6,0c-3.5-0.4-11.9-1.3-19.6-0.7c-3.4,0.3-6,0.8-9.1-0.7C518.2,227.6,516.4,226.7,514.9,225.2z"/>
				<path class="st4" d="M788,96.5c-5.4,2.9-7.9,7.9-10,12.2c-10.8,22.5-1.2,50.4,7.2,53.9c3.8,1.6,5.9,0.1,15.7-0.8
					c11.8-1.2,17.3,0.2,29.7,0.8c23.2,1.3,26.6-1.7,67.1-2.1c6.4-0.1,15.8,2.8,17,0c0.8-1.9-3.1-4.6-5.9-9.3
					c-4.5-7.5-3.6-15.6-3-22.1c1.9-18.4,11.9-26.8,8.5-31c-2.2-2.7-7.8-0.6-15.7,0.8c-14.9,2.8-15.3-1-45.5-1.7
					c-29.7-0.7-26.7,3.1-39.9,0.4C803.4,95.6,795.7,92.4,788,96.5z"/>
				<ellipse class="st5" cx="534" cy="226.9" rx="19.1" ry="5.4"/>
				<ellipse class="st5" cx="1198.4" cy="211.7" rx="21.9" ry="6.2"/>
				<ellipse class="st5" cx="912.5" cy="129.7" rx="7.5" ry="32.8"/>
				<ellipse class="st4" cx="918.7" cy="127" rx="8.2" ry="18.5"/>
			</g>
			<g>
				<rect x="580.6" y="182" class="st6" width="220.5" height="120.4"/>
				<g>
					<rect x="911.3" y="178.2" class="st7" width="240.8" height="120.4"/>
					<rect x="980.8" y="188.5" class="st8" width="45.4" height="45.4"/>
					<rect x="980.8" y="242.8" class="st8" width="45.4" height="45.4"/>
					<rect x="1034.8" y="188.5" class="st8" width="45.4" height="45.4"/>
					<rect x="1034.8" y="242.8" class="st8" width="45.4" height="45.4"/>
					<rect x="1088.8" y="188.5" class="st8" width="45.4" height="45.4"/>
					<rect x="1088.8" y="242.8" class="st8" width="45.4" height="45.4"/>
					<rect x="920.1" y="188.3" class="st8" width="50.9" height="100.2"/>
				</g>
			</g>
			<g>
				<polygon class="st9" points="430.5,440.9 208.1,461.9 208.1,79 430.5,115 				"/>
				<polygon class="st9" points="430.5,332.2 208.1,302.4 208.1,118.1 430.5,175.6 				"/>
				<line class="st10" x1="291.1" y1="92.4" x2="291.1" y2="454.1"/>
				<polygon class="st9" points="140.2,70.1 140.2,455.1 0.8,470.7 0,470.8 0,43.3 0.8,43.4 				"/>
				<polyline class="st9" points="0,96.1 0.8,96.3 140.2,134.2 140.2,298.6 0.8,278.9 0,278.8 				"/>
				<line class="st10" x1="0.8" y1="43.4" x2="0.8" y2="470.7"/>
			</g>
		</g>
		<rect x="703.4" y="739.1" class="st11" width="11.5" height="229.2"/>
		<path class="st12" d="M148.6,738.1c8.4-14.8,2.8-38.4-8.9-44.7c-9.1-4.8-15.1,4.2-38.3,7.7c-28,4.1-37.3-6.4-52.3,2.6
			c-12.7,7.6-16.7,21.5-17.9,25.5c-3.9,13.6-3.3,34.3,7.7,40.8c7.5,4.5,15.8-0.1,33.2-6.4C123.2,745.2,139.7,753.6,148.6,738.1z"/>
		<g>
			<rect x="517.3" y="557.8" class="st13" width="324.9" height="146"/>
			<rect x="502.2" y="545.1" class="st14" width="339.9" height="12.7"/>
			<polygon class="st15" points="842.2,545.1 502.2,545.1 589.3,516.6 916.2,518 			"/>
			<circle class="st16" cx="828.6" cy="727.3" r="13.6"/>
			<polygon class="st17" points="916.2,656.9 842.2,703.7 842.2,545.1 916.2,518 			"/>
			<rect x="833.4" y="557.8" class="st14" width="8.8" height="163.6"/>
			<polygon class="st14" points="824.1,729.8 828.6,733.9 842.2,721.4 833.4,721.4 			"/>
			<circle class="st16" cx="504.2" cy="727.3" r="13.6"/>
			<polygon class="st14" points="499.3,729.8 503.8,733.9 517.4,721.4 508.6,721.4 			"/>
			<rect x="508.5" y="557.8" class="st14" width="8.8" height="163.6"/>
			<circle class="st16" cx="902.6" cy="707.7" r="13.6"/>
			<polygon class="st14" points="916.2,701.8 907.4,701.8 907.4,521.2 916.2,518 			"/>
			<polygon class="st14" points="898.1,710.1 902.6,714.2 916.2,701.8 907.4,701.8 			"/>
		</g>
		<g>
			<rect x="884.3" y="555.8" class="st13" width="324.9" height="146"/>
			<rect x="869.3" y="543.1" class="st14" width="339.9" height="12.7"/>
			<polygon class="st15" points="1209.2,543.1 869.3,543.1 956.3,514.6 1283.2,516 			"/>
			<circle class="st16" cx="1195.6" cy="725.3" r="13.6"/>
			<polygon class="st17" points="1283.2,654.9 1209.2,701.7 1209.2,543.1 1283.2,516 			"/>
			<rect x="1200.4" y="555.8" class="st14" width="8.8" height="163.6"/>
			<polygon class="st14" points="1191.1,727.8 1195.6,731.9 1209.2,719.4 1200.4,719.4 			"/>
			<circle class="st16" cx="871.2" cy="725.3" r="13.6"/>
			<polygon class="st14" points="866.3,727.8 870.9,731.9 884.4,719.4 875.6,719.4 			"/>
			<rect x="875.5" y="555.8" class="st14" width="8.8" height="163.6"/>
			<circle class="st16" cx="1269.7" cy="705.7" r="13.6"/>
			<polygon class="st14" points="1283.2,699.8 1274.4,699.8 1274.4,519.2 1283.2,516 			"/>
			<polygon class="st14" points="1265.1,708.1 1269.7,712.2 1283.2,699.8 1274.4,699.8 			"/>
		</g>
		<g>
			<polyline class="st18" points="670.7,1176.2 582.2,975.7 570.2,983 666.6,1183.5 			"/>
			<polyline class="st18" points="478.3,1154.7 544.4,991.9 553.3,997.8 481.4,1160.6 			"/>
			<polyline class="st18" points="606.8,1238.5 497.6,975.7 482.9,985.2 601.7,1248 			"/>
			<polyline class="st18" points="369.5,1210.3 451,996.9 461.9,1004.7 373.3,1218.1 			"/>
			<path class="st12" d="M592.6,959.7c-3.4-7.8-15.7-3.3-67.6-10.9c-33.5-4.9-35.7-7.9-56-8.6c-19.7-0.7-40.6-1.2-63,9.3
				c-15.8,7.4-42.5,25.1-39.6,38.1c3.2,14.6,50.7,1.6,93.3,20.2c4.2,1.8,16.3,7.4,33.7,10.6c11.3,2.1,20.9,2.4,25,2.3
				C555,1020,599.8,976.3,592.6,959.7z"/>
		</g>
		<g>
			<g>
				<polyline class="st18" points="560.1,998.6 615.8,852.9 623.3,858.2 562.7,1003.9 				"/>
				<polyline class="st18" points="634.4,960.6 679.5,849.5 685.6,853.5 636.5,964.6 				"/>
				<polyline class="st18" points="722.1,1017.8 647.6,838.4 637.6,844.9 718.7,1024.3 				"/>
				<polyline class="st18" points="765.8,975.3 705.3,838.4 697.2,843.4 763,980.2 				"/>
			</g>
			<path class="st12" d="M712.5,827.4c-2.3-5.4-10.7-2.3-46.2-7.4c-22.9-3.3-24.3-5.4-38.2-5.8c-13.4-0.5-27.7-0.8-43,6.4
				c-10.8,5.1-29,17.1-27.1,26c2.2,10,34.6,1.1,63.7,13.8c2.8,1.2,11.1,5.1,23,7.2c7.7,1.4,14.3,1.6,17.1,1.6
				C686.8,868.6,717.4,838.8,712.5,827.4z"/>
		</g>
		<polygon class="st19" points="753.2,686.1 390.2,1080 3.5,1080 3.5,773.9 271.3,686.1 		"/>
		<polygon class="st20" points="753.2,686.1 753.2,700.6 416.6,1080 390.2,1080 		"/>
		<g>
			<polyline class="st18" points="1221.2,927.5 1275.5,804.7 1282.8,809.1 1223.8,931.9 			"/>
			<polyline class="st18" points="1339.2,914.3 1298.7,814.6 1293.2,818.2 1337.3,917.9 			"/>
			<polyline class="st18" points="1260.4,965.6 1327.3,804.7 1336.3,810.5 1263.6,971.5 			"/>
			<polyline class="st18" points="1405.8,948.4 1355.9,817.7 1349.2,822.4 1403.5,953.1 			"/>
			<path class="st12" d="M1269.1,794.8c2.1-4.8,9.6-2,41.4-6.7c20.5-3,21.8-4.8,34.3-5.2c12.1-0.4,24.9-0.7,38.6,5.7
				c9.7,4.5,26,15.4,24.3,23.3c-1.9,9-31,1-57.1,12.4c-2.6,1.1-10,4.5-20.6,6.5c-6.9,1.3-12.8,1.5-15.3,1.4
				C1292.1,831.8,1264.7,805,1269.1,794.8z"/>
			<path class="st12" d="M1244.4,688c2.4-1.4,5.8,4.9,15.9,10.3c13.4,7.2,19.6,2.8,26.5,8.8c5.5,4.8,6.3,13.3,7.8,30.1
				c0.7,8.6,1.2,20.6,0,36.4c-1.6,21.1-4.1,23.9-1.8,33.3c3.6,14.2,12.9,21.8,11.3,23.3c-1.5,1.5-9.9-5.8-25.1-17
				c-26-19.1-32.2-20.5-35.7-30.1c-1.9-5.1-1.1-12.7,0.4-27.9c2.2-22.9,5.5-24,5-36.8C1247.9,700.9,1241.3,689.8,1244.4,688z"/>
		</g>
		<polyline class="st14" points="930,510 930,510 930,510 		"/>
		<polygon class="st21" points="1726.7,1071.5 1587.9,811.3 1587.9,763.4 1726.7,1002.5 		"/>
		<path class="st22" d="M1521.8,340.4c-7,0.8-12.6,8.6-11.3,13.5c0.1,0.3,0.7,2.4,2.2,2.8c3.6,1,8.1-8,9.7-7.2
			c1.2,0.6-0.7,5.7-1.3,14.4c-0.2,2.9-0.6,9.4,0.6,9.7c1.6,0.4,5.2-15.4,7.2-15c1.6,0.3-1,10.3,4.7,16.9c3.1,3.6,8.2,5.8,10,4.4
			c1.9-1.5-1.5-6-5.6-20c-2.8-9.5-3.1-13.4-7.2-16.6C1529.8,342.4,1526.2,339.9,1521.8,340.4z"/>
		<g>
			<rect x="1610.7" y="370.4" class="st23" width="114.5" height="398.5"/>
			<rect x="1610.9" y="370.4" class="st24" width="114.5" height="46.2"/>
			<rect x="1610.1" y="416.6" class="st24" width="114.5" height="46.2"/>
			<rect x="1610.7" y="462.8" class="st24" width="114.5" height="46.2"/>
		</g>
		<g>
			<path class="st25" d="M1574.3,369.2c-13.2-1.2-22.8,8.3-27.3,12.8c-9.8,9.7-14.3,22.2-12.8,23.3c0.7,0.5,2.5-2.1,7.7-4.2
				c4.8-1.9,10.2-2.6,10.7-1.5c0.2,0.6-1.3,1.4-4.2,3.9c-6,5.1-5.1,6.7-10.4,11c-2.7,2.2-4,2.7-4.4,4.4c-0.6,2.8,0.9,6.4,2.7,6.5
				c1.9,0.2,2.5-3.8,6.8-9.5c3.7-5,9.2-9.8,10.7-8.9c1,0.6,0.1,3.7-0.6,5.3c-1.5,3.7-3.8,4.8-8,8.9c-4.7,4.5-7.8,7.6-7.1,10.4
				c0.5,2,2.7,3.6,4.2,3.3c1.5-0.4,1.6-2.7,3-5.9c2.6-6.4,7.5-10.1,9.5-11.6c3.5-2.6,8-4.7,8.6-3.9c0.5,0.6-1.4,2.8-4.2,5.9
				c-5.4,6.2-7.2,6.9-10.7,11.3c-3.1,3.9-6.4,8-5,11.3c0.8,1.9,3,3.4,4.4,3c1.8-0.6,1.2-4,2.7-8c2.7-7.3,10.6-11.7,11.9-10.7
				c1,0.8-1.6,5.5-3,8c-4.3,7.8-8,9.4-7.4,12.2c0.8,3.9,8.7,5.3,12.5,5.6c6.4,0.5,15.3-1.3,16.3-5.6c0.5-2.2-1.4-3.3-3.9-7.7
				c-4.9-8.9-5.4-19.4-3.6-20.2c1.1-0.5,3.4,2.6,4.4,4.2c7.2,10,5.7,20.3,8.6,20.8c1.8,0.3,4.1-3.1,4.7-6.2
				c0.6-3.3-0.8-5.6-4.4-12.5c-5.4-10.2-6.1-11.4-5.9-11.6c0.5-0.4,7.7,5.1,10.7,13.6c0.7,2.1,1.5,5,2.7,5c1.1,0,2-2.7,2.1-3
				c2.4-7.4-11-16.5-9.8-18.1c0.6-0.8,4.6,0.6,7.7,3.3c4.4,3.8,5.1,8.8,6.2,8.6c0.8-0.2,1.3-3.2,0.9-6.2c-1.3-8.9-9.6-14.6-9.2-15.1
				c0.4-0.5,6.6,5.6,8.9,4.2c1.2-0.7,0.9-3.1,0.6-5c-1.3-8.2-2.8-17.5-11.6-24.6C1587.9,374.3,1582.4,369.9,1574.3,369.2z"/>
			<path class="st25" d="M1708.1,419.1c-2.9,0.1-3.7-6-8.5-6.9c-4.7-0.8-9,3.9-9.4,4.4c-3.7,4.3-1.2,6.9-4.7,11.8
				c-2.2,3.1-3.5,2.6-10.5,9.6c-2.3,2.3-3.8,4-3.3,5.5c0.5,1.8,3.6,2.4,4.1,2.5c9.4,1.7,19.7-13.6,20.9-12.7
				c1,0.8-5.8,11.6-7.2,13.8c-4.8,7.5-6.7,9.6-6.3,13c0.5,4,4,8.7,7.7,8.3c2.1-0.2,2.7-2.9,6.1-10.2c2.2-4.7,7.6-16.5,9.4-16
				c0.9,0.2,0.8,3.2,0.6,5.2c-0.7,5.5-3.7,8.3-6.6,12.7c-1.9,2.9-8.8,13.2-5.5,18.7c1.7,2.9,6.3,4.4,8.3,3c1.8-1.2,0.6-4.1,1.4-9.1
				c1.2-8,6.4-14.5,7.4-14.1c0.6,0.2-0.4,2.8-0.8,7.2c-0.4,4.2-1.8,17.1,5,21.8c3,2.1,7.5,2.6,10.7,0.6c3.7-2.3,4.5-7.3,4.1-10.5
				c-0.4-3.8-2.6-6.1-1.9-6.6c1.1-0.9,7.1,5.9,9.1,4.7c1.4-0.9,0.4-5.5-0.8-8.5c-3-7.8-8.9-11.4-8.3-12.4c0.9-1.3,10.8,4.7,11.8,3.3
				c0.8-1.2-5-7.3-6.6-9.1c-2.7-2.8-4.2-4-3.9-4.7c0.8-1.7,10.8,2.4,11.6,0.8c0.6-1.2-4.7-5.4-9.9-8.3c-4.4-2.4-8.1-3.6-8-4.1
				c0.2-0.9,9.4,3.1,16-1.1c2.2-1.4,5-4.3,4.4-6.6c-1.3-5-17.4-4.8-17.4-6.1c0-1,10.1,0.6,12.4-3.6c1.9-3.5-2.2-10-6.9-13.2
				c-1.2-0.8-6.6-4.6-11.6-2.8C1712.5,402.6,1712.9,418.9,1708.1,419.1z"/>
			<path class="st26" d="M1543.2,293c-6-2.6-11.2-2.6-13.3-2.5c-7.5,0.2-14.2,3-14.1,4c0.2,1.3,12.9,0.3,13,0.7
				c0,0.4-9.3-0.5-15.5,5c-2.3,2.1-4.3,5.1-3.6,6.1c1.6,2.1,15.3-5.4,15.5-5c0.1,0.2-7.1,2.5-10.1,8.6c-1.4,2.8-1.9,6.5-0.7,7.2
				c2.3,1.4,11.3-8.5,11.2-8.6c-0.1-0.1-7,4.7-9,12.2c-0.2,0.8-1,3.7,0,4.3c2.1,1.3,9.9-9.5,11.9-8.3c1.6,1-3,7.6-0.4,14.8
				c0.2,0.7,2.1,5.8,5.8,6.5c5.8,1.1,13.9-8.9,13.3-17.3c-0.2-2.7-1.3-5.4-1.4-5.4c-0.2,0.1,1.4,12.8,4.3,13c1.6,0.1,3.4-3.4,4-6.5
				c1-6-2.7-11.5-2.5-11.5c0.2-0.1,5.2,12.4,7.6,11.9c1.2-0.3,1.6-4.1,1.4-6.8C1560,305.8,1552.2,296.9,1543.2,293z"/>
			<g>
				<path class="st27" d="M1686.5,315c-11.5-22.3-30.7-26.1-52.5-15.8c-26.7,11.6-43.7,33.6-54.4,60.1c-2.7,6.4-4.8,13.1-6.7,19.8
					c1.4-6.8,3.4-13.6,5.8-20.2c10-27.1,27.5-50,54.6-61.4C1655.4,287.1,1676.1,291.6,1686.5,315L1686.5,315z"/>
			</g>
			<g>
				<path class="st28" d="M1653.6,317.4c-3.1-21.4-24.9-29.8-43.8-33c-22.3-4.4-45.1,0.3-63.4,14c15.9-14.4,38.8-20.4,59.9-17
					c10.5,1.7,21.3,4.2,30.5,9.9C1645.9,296.9,1653.2,306.5,1653.6,317.4L1653.6,317.4z"/>
			</g>
			<g>
				<path class="st29" d="M1637.4,229.9c-13.6,15.3-9.5,39.9-5.4,58.3c2.9,12.7,8.1,25.2,16.7,35.1c1.5,1.8,3.3,3.6,5,5.1
					c1.8,1.6,3.7,3,5.7,4.4c-4.3-2.3-8.1-5.4-11.4-8.8c-9.2-9.7-14.8-22.4-17.9-35.3C1625.8,270.2,1622.4,244.4,1637.4,229.9
					L1637.4,229.9z"/>
			</g>
			<path class="st25" d="M1637.1,223.1c-6.1-0.3-7.7-1.3-10.8-1.5c-13.5-0.8-27.3,16.5-25.6,18.9c1.8,2.5,21.2-8.7,22-7.2
				c0.8,1.5-18.4,10.3-16.9,16.9c0.7,3.1,5.9,4.9,9.7,4.6c8.4-0.6,11.1-17,13.3-16.4c1.7,0.5-1,9.5,2.6,11.8
				c3.4,2.2,11.9-2,12.8-7.2c0.9-4.9-5.2-9.4-4.1-10.8c1.3-1.6,8.9,4.8,11.8,2.6c2.1-1.7,1.4-8.1-2-10.8
				C1647.3,222.1,1644.7,223.5,1637.1,223.1z"/>
			<g>
				<path class="st30" d="M1688.7,174.9c-20.2,13.9-29.4,44-35.4,66.8c-4.8,18.6-8.1,38.1-5.3,57.2c0.9,6.4,2.7,12.6,5.6,18.4
					c-3.4-5.6-5.4-11.9-6.7-18.2c-3.6-19.3-0.8-39.2,4.1-58C1656.9,218.5,1667.4,187.3,1688.7,174.9L1688.7,174.9z"/>
			</g>
			<g>
				<path class="st28" d="M1634.2,315.5c19.2-27,36.8-10.7,48.3,12.3c6.6,12.9,11.4,26.6,15.6,40.4c6.3,20.7,11,41.8,14.9,63.1
					c-6.8-27.9-13.5-56-23.6-82.9c-5.5-14.2-14.3-36.8-28.2-44.2C1650.6,298.7,1640.4,307.6,1634.2,315.5L1634.2,315.5z"/>
			</g>
			<g>
				<polygon class="st31" points="1624.2,325.5 1636.8,365.4 1676.7,365.4 1690.1,325.5 				"/>
				<polygon class="st31" points="1614.2,312.1 1620.2,325.5 1693.3,325.5 1700.4,312.1 				"/>
				<line class="st32" x1="1624.2" y1="325.5" x2="1690.1" y2="325.5"/>
			</g>
			<path class="st33" d="M1703.9,311c-1.9,0.5-3-4.9-7.3-7.3c-6.2-3.5-15.2,1.7-17.8,3.3c-6.8,4-11.4,10.1-10.6,11.2
				c1,1.4,8.9-5.7,17.8-3.3c2.1,0.6,5.5,2,5.6,4c0.1,2.2-4.4,2.8-10.2,7.3c-2.4,1.8-9.4,7.2-9.6,14.5c0,1.3-0.1,4.3,1.3,5
				c3.6,1.6,10.4-13.9,19.2-12.9c1.8,0.2,4.5,1.2,5.3,3.3c2,5.5-12.8,10.6-13.5,20.5c-0.7,8.1,8.3,18.6,19.2,19.5
				c8.8,0.7,18.5-4.7,19.2-10.6c0.7-6.2-9.2-10.2-7.6-15.9c0.7-2.5,3.5-4.9,5.9-4.6c5.6,0.5,6.7,14.6,11.9,14.9
				c1.7,0.1,3.6-1.2,4.3-2.6c2.5-4.9-5.1-16-13.9-21.8c-2.1-1.4-4.9-2.9-4.6-4c0.3-1.1,3.6-1.6,6.3-1c9.5,2.1,11.4,18.7,16.2,18.2
				c2.1-0.2,3.2-3.6,3.3-4c1.7-5.6-4.1-12.4-8.9-15.9c-7.5-5.4-15.6-5.1-15.5-6.6c0.1-1,3.7-2.2,7.6-2c12.4,0.5,19.6,14.3,22.5,12.6
				c1.8-1.1-0.1-7.3-0.7-8.9c-0.7-2.2-3.7-11.8-11.6-14.5c-6.2-2.2-9.7,1.9-14.5-1.3c-3.2-2.1-2.8-4.5-5.9-5.6
				c-3.3-1.1-7.9,0.2-10.2,3C1704.7,308,1705.3,310.7,1703.9,311z"/>
			<path class="st25" d="M1660.7,171.4c-0.4,1.3,6.5,5,13.8,7.2c13,3.8,16.4-0.3,23.5,2.6c15.1,6.1,14.8,30.4,23,30.2
				c3.2-0.1,5.9-3.7,6.7-6.7c0.9-3.8-1.6-6.7-11.8-19.5c-9.5-11.9-10.3-13.2-13.3-14.3c-5.7-2.1-7.9,0.8-19.5,1.5
				C1669.7,173.3,1661.1,170,1660.7,171.4z"/>
			<path class="st25" d="M1662.2,200.1c-1.4,2.3,4.9,6.8,3.6,10.2c-1.6,4.2-13.2,2.7-13.3,4.1c-0.1,1.2,8.5,3.8,19.5,5.1
				c12.5,1.5,14.1-0.2,20,2c10.7,4.2,14,13.5,16.4,12.3c2.6-1.3,0.5-13-5.1-22.5c-2-3.3-9.2-15.6-18.4-15.4c-4.4,0.1-5.3,3-12.3,3.6
				C1666.7,200,1663.2,198.4,1662.2,200.1z"/>
		</g>
		<g>
			<polyline class="st21" points="1726.7,1071.5 1726.7,1002.5 2027.7,973.5 2027.7,1044.2 			"/>
			<polygon class="st34" points="2027.7,973.5 1726.7,1002.5 1587.9,763.4 1725.3,761.1 			"/>
			<g>
				
					<rect x="1667.7" y="618.1" transform="matrix(6.123234e-17 -1 1 6.123234e-17 996.3779 2346.5105)" class="st35" width="7.4" height="114"/>
				
					<rect x="1665.5" y="646" transform="matrix(6.123234e-17 -1 1 6.123234e-17 968.4806 2374.4077)" class="st35" width="11.9" height="114"/>
				
					<rect x="1665.5" y="686.1" transform="matrix(6.123234e-17 -1 1 6.123234e-17 928.3247 2414.5637)" class="st35" width="11.9" height="114"/>
				<ellipse class="st35" cx="1672.3" cy="723.1" rx="8.2" ry="14.2"/>
				<path class="st35" d="M1647.3,704.3c-3.7,1-5.2,5.7-6.7,10.5c-1.1,3.5-2.8,9.1-1.3,16.2c0.3,1.5,2.3,10.9,6.7,11.3
					c1.5,0.1,3.2-0.5,3.9-1.8c0.8-1.7-1.6-3.6-3.1-6.3c-3.4-5.9-2.9-14.6,0.5-19.8c2.9-4.6,7.2-5.5,6.7-7.7
					C1653.5,704.9,1650,703.6,1647.3,704.3z"/>
				<path class="st35" d="M1697.4,704.3c3.7,1,5.2,5.7,6.7,10.5c1.1,3.5,2.8,9.1,1.3,16.2c-0.3,1.5-2.3,10.9-6.7,11.3
					c-1.5,0.1-3.2-0.5-3.9-1.8c-0.8-1.7,1.6-3.6,3.1-6.3c3.4-5.9,2.9-14.6-0.5-19.8c-2.9-4.6-7.2-5.5-6.7-7.7
					C1691.2,704.9,1694.7,703.6,1697.4,704.3z"/>
				<rect x="1734.6" y="672.5" class="st36" width="14.8" height="101.4"/>
				<polygon class="st37" points="1734.6,774 1725.3,761.1 1725.3,668.8 1734.6,672.5 				"/>
				<polygon class="st38" points="1749.4,672.5 1734.6,672.5 1725.3,668.8 1738.9,668.8 				"/>
				<rect x="1599.6" y="668.4" class="st36" width="14.8" height="101.4"/>
				<polygon class="st37" points="1599.6,769.8 1590.3,757 1590.3,664.7 1599.6,668.4 				"/>
				<polygon class="st38" points="1614.4,668.4 1599.6,668.4 1590.3,664.7 1603.9,664.7 				"/>
				<polygon class="st39" points="1926.2,841.6 1741.2,717.3 1741.2,690.6 1926.2,801.8 				"/>
				<polygon class="st40" points="1741.2,690.6 1749.4,690.6 1926.2,793.4 1926.2,801.8 				"/>
				<polygon class="st39" points="1927,894.2 1742,769.8 1742,743.1 1927,854.4 				"/>
				<polygon class="st40" points="1742,743.1 1750.2,743.1 1927,845.9 1927,854.4 				"/>
			</g>
			<g>
				<path class="st41" d="M1881.9,787c-1.8,9.2,0.7,11.6,1.6,24.8c0.9,13,2.9,36.1-10.8,49.6c-2.8,2.8-12.2,12-22.4,10.3
					c-8.9-1.4-10-9.6-23-14.3c-9-3.2-9.4,0.3-17.3-3.2c-7.4-3.3-7.9-6.9-17.6-14.2c-1.1-0.8-2.4-1.7-3.8-2.7
					c-3.3-2.2-4.9-3.1-6.5-5.5c-3.3-5.1-2.5-11.2-1.6-17c0.4-2.4,1.2-6.9,3.8-14.2c5.5-14.9,10.4-16,9.4-23.8
					c-0.3-2.2-1.2-6.2-0.1-11.5c0.8-4.4,2.4-6.9,3.6-9.4c4.2-9,1-13.8,2.9-23.4c1.9-9.5,8.5-22.5,15.7-22.7
					c8.1-0.3,8.3,16,22.8,21.3c8.8,3.2,13.7-0.8,22,4.7c4.3,2.9,5.8,5.8,10.9,7c1.9,0.4,3.4,0.4,4.7,0.2c2.7-0.4,4.5-1.3,6.8-0.2
					c6.5,3,6.2,16.4,6.2,18.7C1889.2,771.6,1884,776,1881.9,787z"/>
				<path class="st42" d="M1881.9,787c-1.8,9.2,0.7,11.6,1.6,24.8c0.9,13,2.9,36.1-10.8,49.6c-2.8,2.8-12.2,12-22.4,10.3
					c-8.9-1.4-10-9.6-23-14.3c-9-3.2-9.4,0.3-17.3-3.2c-7.4-3.3-7.9-6.9-17.6-14.2c1.6-0.4,3.3-0.6,4.8-0.6
					c5.7,0.1,6.7,3.7,11.9,4.4c7.7,1,9.8-6.3,18.3-6.7c8-0.3,9.6,6,16.3,5.4c11.2-0.9,18.2-19.3,18.8-21.2c4.1-11,0-15,5.4-29.7
					c2.9-7.7,4.3-8,5.4-13.7c2.5-12.5-3.1-17.3,0.3-28.1c0.4-1.2,1.2-3.9,2.6-6.5c2.7-0.4,4.5-1.3,6.8-0.2c6.5,3,6.2,16.4,6.2,18.7
					C1889.2,771.6,1884,776,1881.9,787z"/>
			</g>
		</g>
		<path class="st12" d="M632.9,785.3c-3.8-2.2-9.5,7.9-26,16.7c-21.9,11.7-32,4.6-43.3,14.4c-9,7.8-10.3,21.6-12.7,49.1
			c-1.2,14.1-1.9,33.6,0,59.5c2.6,34.4,6.7,38.9,2.9,54.3c-5.8,23.3-21,35.6-18.5,38.1c2.5,2.4,16.1-9.4,41-27.7
			c42.4-31.1,52.5-33.4,58.3-49.1c3.1-8.3,1.8-20.7-0.6-45.6c-3.6-37.3-9-39.2-8.1-60.1C627.2,806.3,638.1,788.3,632.9,785.3z"/>
		<path class="st12" d="M740,708.4c-2.6-1.5-6.5,5.4-17.7,11.4c-14.9,8-21.8,3.1-29.6,9.9c-6.1,5.3-7,14.8-8.7,33.5
			c-0.8,9.6-1.3,22.9,0,40.6c1.8,23.5,4.6,26.6,2,37.1c-4,15.9-14.4,24.3-12.6,26c1.7,1.6,11-6.4,28-18.9
			c28.9-21.3,35.9-22.8,39.8-33.5c2.1-5.7,1.3-14.2-0.4-31.1c-2.5-25.5-6.1-26.7-5.5-41C736.1,722.7,743.5,710.4,740,708.4z"/>
		<g>
			
				<rect x="1389.3" y="804.7" transform="matrix(0.9765 0.2154 -0.2154 0.9765 221.3649 -279.8413)" class="st43" width="11" height="142.4"/>
			
				<rect x="1582.2" y="805.5" transform="matrix(-0.9765 0.2154 -0.2154 -0.9765 3318.9849 1317.5027)" class="st43" width="11" height="68.1"/>
			<g>
				<polygon class="st44" points="1621.3,801.8 1359.4,801.8 1345,736 1569.8,736 				"/>
				<polygon class="st45" points="1374.9,736 1392.8,801.8 1398.8,801.8 1377.5,736 				"/>
				<polygon class="st45" points="1415.5,736 1445.1,801.8 1451.9,801.8 1419,736 				"/>
				<polygon class="st45" points="1450.2,736 1486.6,801.8 1492.7,801.8 1451.9,736 				"/>
				<polygon class="st45" points="1530.1,801.8 1483.2,736 1486.2,736 1537.8,801.8 				"/>
				<polygon class="st45" points="1579.8,801.8 1523.3,736 1529.1,736 1588.4,801.8 				"/>
				<polygon class="st46" points="1359.4,814.6 1345,753.7 1345,736 1359.4,801.8 				"/>
				<rect x="1359.4" y="801.8" class="st46" width="261.9" height="12.7"/>
			</g>
		</g>
	</g>
</g>
</svg>
